<svg version="1.1" id="Layer_1" xmlns="http://www.w3.org/2000/svg" xmlns:xlink="http://www.w3.org/1999/xlink" x="0px" y="0px"
	 width="100%" viewBox="0 0 809 237" enable-background="new 0 0 809 237" xml:space="preserve">
<path fill="#FEFEFE" opacity="1.000000" stroke="none" 
	d="
M522.000000,238.000000 
	C348.041443,238.000000 174.582870,238.000000 1.062157,238.000000 
	C1.062157,159.060349 1.062157,80.120636 1.062157,1.090459 
	C270.666656,1.090459 540.333313,1.090459 809.965454,1.090459 
	C809.965454,80.083839 809.965454,159.041931 809.965454,238.000000 
	C714.120544,238.000000 618.310303,238.000000 522.000000,238.000000 
M142.727676,155.205566 
	C133.184341,167.903290 123.640999,180.600998 113.847404,193.631683 
	C143.017273,196.377930 177.512131,179.338516 189.173935,144.438873 
	C200.783508,109.695541 187.430893,72.995728 156.183258,54.504242 
	C125.528389,36.363529 86.742821,42.436546 62.398884,69.085609 
	C38.961929,94.741806 38.512405,132.804779 52.750931,155.034317 
	C67.356491,135.532028 81.878128,116.141823 95.484055,97.974312 
	C92.932159,95.198433 89.919052,93.364120 89.310150,90.928719 
	C88.335762,87.031441 91.829857,85.365448 95.126549,84.091171 
	C102.418358,81.272659 109.650291,78.299362 116.909386,75.396034 
	C120.228081,74.068695 122.199684,74.354752 122.290207,78.766808 
	C122.484604,88.241745 123.266800,97.707260 123.334183,107.180016 
	C123.348259,109.159035 121.212158,112.865997 120.243179,112.808456 
	C117.652084,112.654594 114.816597,111.305588 112.742981,109.615738 
	C111.361328,108.489777 111.120308,105.964157 110.133980,103.471603 
	C93.681618,125.551041 77.637138,147.083084 61.462563,168.789734 
	C64.853645,171.971313 67.713844,174.654800 70.916466,177.659561 
	C72.446136,175.708939 73.683350,174.187073 74.861229,172.620590 
	C86.267914,157.450684 97.253876,141.938248 109.241119,127.242355 
	C115.052429,120.117935 124.422905,118.621948 133.246445,117.191086 
	C133.408554,117.164795 133.652756,117.644745 134.273056,118.379074 
	C132.619507,120.979080 130.860336,123.745178 128.650955,127.219193 
	C130.387177,126.905556 131.206635,126.882019 131.931122,126.607666 
	C140.489090,123.366829 149.057999,120.152191 157.568954,116.791168 
	C161.393402,115.280891 163.109589,116.096474 163.231689,120.470955 
	C163.477631,129.281708 164.262436,138.082230 164.312958,146.889923 
	C164.324188,148.846939 162.571671,151.988144 160.988861,152.468796 
	C159.203400,153.011002 156.325851,151.616013 154.607285,150.220932 
	C153.095078,148.993347 152.526413,146.603424 151.187439,144.053360 
	C148.295212,147.855194 145.719925,151.240433 142.727676,155.205566 
M359.113251,126.531105 
	C359.113251,148.286346 359.113251,170.041595 359.113251,191.859314 
	C365.124786,191.859314 370.527618,191.859314 376.408386,191.859314 
	C376.408386,183.475937 376.408386,175.392334 376.408386,167.006226 
	C378.369659,167.006226 379.878448,167.198593 381.320862,166.970657 
	C385.902771,166.246597 388.507233,168.030396 390.395844,172.359741 
	C392.912506,178.128799 396.162231,183.589417 399.292816,189.070740 
	C400.014191,190.333771 401.485107,191.953674 402.689423,192.021622 
	C408.257660,192.335800 413.853485,192.160370 420.207611,192.160370 
	C414.573029,182.823334 409.362549,174.189072 404.091644,165.454697 
	C404.939850,164.971024 405.646301,164.542770 406.375031,164.156479 
	C416.362518,158.862015 420.471588,149.733658 418.964142,136.173492 
	C417.828583,125.958656 411.991180,118.253990 401.089569,116.877411 
	C387.349213,115.142380 373.344513,115.500977 359.113251,114.942963 
	C359.113251,119.250198 359.113251,122.397308 359.113251,126.531105 
M608.458679,173.076782 
	C607.238220,172.547699 605.905640,172.186523 604.816956,171.459991 
	C600.509094,168.585266 597.377380,169.100006 593.314636,172.902802 
	C585.540100,180.179962 573.208618,179.770111 564.309509,173.046448 
	C555.371704,166.293549 552.091125,154.163086 556.581482,144.470688 
	C561.247559,134.399002 572.553406,127.890602 582.717102,130.590179 
	C588.420349,132.105011 593.595337,135.608383 600.228577,138.803619 
	C603.580444,137.269440 608.549377,134.995102 613.906799,132.542938 
	C612.498230,130.775513 611.397400,129.115753 610.027466,127.720016 
	C600.402283,117.913124 588.487061,114.191887 575.049683,115.167000 
	C548.573059,117.088326 531.997986,140.064346 538.980103,164.934219 
	C544.301941,183.890289 564.961731,196.211746 585.330627,192.600098 
	C596.860535,190.555725 606.704773,185.804718 613.528259,175.531021 
	C611.827881,174.695908 610.491150,174.039413 608.458679,173.076782 
M346.848907,183.653412 
	C346.766418,182.052399 346.683899,180.451385 346.567413,178.190765 
	C333.161682,178.190765 320.101227,178.190765 307.034180,178.190765 
	C307.034180,161.790085 307.034180,146.077469 307.034180,129.978073 
	C319.924316,129.978073 332.512024,129.978073 345.348511,129.978073 
	C345.348511,125.185150 345.348511,120.782677 345.348511,116.265198 
	C326.688354,116.265198 308.307648,116.265198 289.880005,116.265198 
	C289.880005,141.751282 289.880005,166.958511 289.880005,192.263153 
	C308.962646,192.263153 327.694000,192.263153 346.848877,192.263153 
	C346.848877,189.501160 346.848877,187.038925 346.848907,183.653412 
M673.357239,192.562241 
	C675.937073,192.562241 678.516846,192.562241 681.100952,192.562241 
	C681.100952,187.485703 681.100952,183.218109 681.100952,178.295364 
	C667.794983,178.295364 654.733704,178.295364 641.437134,178.295364 
	C641.437134,161.913086 641.437134,146.192886 641.437134,129.941132 
	C654.399719,129.941132 667.120422,129.941132 679.778931,129.941132 
	C679.778931,125.012917 679.778931,120.625130 679.778931,116.372849 
	C661.063965,116.372849 642.691895,116.372849 624.341003,116.372849 
	C624.341003,141.838135 624.341003,166.920410 624.341003,192.561935 
	C640.510132,192.561935 656.452637,192.561935 673.357239,192.562241 
M647.534607,79.824066 
	C650.769775,62.347363 641.778381,48.671925 624.968811,45.502747 
	C603.109253,41.381474 585.088013,59.440189 590.690491,79.852280 
	C593.953674,91.741302 604.135803,99.700081 616.681335,100.167831 
	C632.163330,100.745079 642.429077,94.168129 647.534607,79.824066 
M582.481140,97.438278 
	C579.160645,91.902016 575.840210,86.365746 572.456909,80.724709 
	C573.474060,80.055870 574.148621,79.593208 574.841370,79.159698 
	C581.542236,74.966774 584.507141,67.359726 582.794128,58.740360 
	C581.373718,51.593323 576.376709,46.485737 568.261658,45.873299 
	C559.219299,45.190887 550.085876,45.716904 540.855286,45.716904 
	C540.855286,63.628342 540.855286,81.627495 540.855286,99.468857 
	C545.029907,99.468857 548.763062,99.468857 552.898682,99.468857 
	C552.898682,93.485199 552.898682,87.885139 552.898682,82.358391 
	C560.286926,81.374023 560.283386,81.375916 563.286743,87.036034 
	C564.143250,88.650330 565.032288,90.247322 565.897400,91.857140 
	C570.643188,100.688522 571.328247,101.068771 581.296509,99.786125 
	C581.887268,99.710106 582.359131,98.709030 582.481140,97.438278 
M739.847473,150.583374 
	C731.415894,147.332108 722.984375,144.080841 714.391541,140.767365 
	C707.592712,148.903946 710.080933,157.211975 720.598938,160.380264 
	C723.760620,161.332642 726.883362,162.537231 729.849915,163.983231 
	C733.559570,165.791428 735.231567,168.929245 734.153748,173.052612 
	C733.088013,177.129700 729.749695,178.548187 726.085999,178.316193 
	C721.829529,178.046692 717.382996,177.593353 713.456055,176.083176 
	C708.118408,174.030533 703.195068,170.900650 697.677246,168.014755 
	C696.006897,171.461655 694.057495,175.096207 692.532104,178.900818 
	C692.142700,179.872040 692.679199,182.002304 693.495728,182.551743 
	C707.221069,191.787949 721.953369,196.311371 738.270813,190.494720 
	C747.052856,187.364197 752.197571,180.741867 752.691223,171.360153 
	C753.179993,162.070541 749.357727,154.884079 739.847473,150.583374 
M259.568604,191.211929 
	C272.704559,186.155853 278.121521,176.640305 275.019806,163.913696 
	C272.683594,154.327972 264.843872,150.985397 256.730011,147.985397 
	C250.428345,145.655411 244.135773,143.300781 237.576660,140.859406 
	C230.684616,148.356064 233.165756,157.211273 243.543381,160.320053 
	C246.865402,161.315231 250.141220,162.599564 253.250839,164.131821 
	C256.532990,165.749069 258.229553,168.665024 257.521149,172.361191 
	C256.751129,176.378815 253.726089,178.477158 249.928787,178.240875 
	C245.183685,177.945618 240.250397,177.431870 235.842361,175.807556 
	C230.683701,173.906631 226.003204,170.708130 220.853561,167.931412 
	C219.273911,171.175308 217.827240,174.529510 216.041626,177.692352 
	C214.597824,180.249786 215.029266,181.810135 217.511765,183.380707 
	C230.253082,191.441559 243.767548,195.334473 259.568604,191.211929 
M515.446411,79.010201 
	C517.023743,79.092163 518.601074,79.174118 521.362854,79.317627 
	C520.080200,81.738220 519.571960,83.724129 518.309326,84.900017 
	C513.216125,89.643372 507.146790,90.719307 500.734589,88.169159 
	C494.396088,85.648315 490.557251,80.904144 489.860443,73.936310 
	C489.152618,66.858292 492.345947,61.592148 498.113831,58.055214 
	C503.973206,54.462173 510.281311,54.562969 516.040527,58.313698 
	C518.426025,59.867283 520.011230,59.919769 522.199646,58.390255 
	C524.314514,56.912140 526.661133,55.765610 528.939270,54.454208 
	C523.095093,46.431305 511.617889,44.039371 502.064972,45.072670 
	C486.980927,46.704243 475.842468,60.296791 477.548828,74.906517 
	C478.949127,86.895859 485.496277,94.992958 496.808502,98.547684 
	C508.570801,102.243828 519.523071,100.089394 528.685913,91.360870 
	C529.957275,90.149788 531.484680,88.444359 531.574280,86.891655 
	C531.913940,81.005089 531.711060,75.087234 531.711060,69.354683 
	C524.046753,69.354683 517.117004,69.354683 509.987549,69.354683 
	C509.987549,72.633675 509.987549,75.560638 509.987549,78.779724 
	C511.582886,78.861282 513.039124,78.935730 515.446411,79.010201 
M421.832458,65.171562 
	C421.836914,54.842525 417.797394,47.502785 409.722351,46.385986 
	C399.790131,45.012341 389.646484,45.167328 379.356140,44.649616 
	C379.356140,63.620579 379.356140,81.494087 379.356140,99.487328 
	C383.387360,99.487328 387.091370,99.487328 391.314453,99.487328 
	C391.314453,93.489677 391.314453,87.898094 391.314453,82.482552 
	C396.919556,80.774399 400.501862,82.069344 402.243103,87.465584 
	C402.847015,89.337097 404.054138,91.013176 404.979095,92.782005 
	C408.967255,100.408501 412.996826,101.905075 421.950897,98.864655 
	C418.288391,92.778931 414.658264,86.746971 410.885590,80.478188 
	C417.853668,77.649673 420.676880,72.448235 421.832458,65.171562 
M747.087463,79.831131 
	C754.238037,75.453217 757.225525,68.647552 755.875793,59.810936 
	C754.852051,53.108963 750.245422,47.063866 743.510132,46.489399 
	C733.678589,45.650841 723.722290,46.273884 713.740601,46.273884 
	C713.740601,63.908356 713.740601,81.756645 713.740601,99.512123 
	C717.885010,99.512123 721.626587,99.512123 725.813843,99.512123 
	C725.813843,93.591797 725.813843,88.011330 725.813843,82.959785 
	C733.009460,81.936409 739.676392,80.988235 747.087463,79.831131 
M508.315430,149.499908 
	C508.315430,163.609863 508.315430,177.719818 508.315430,191.927856 
	C514.348145,191.927856 519.776001,191.927856 525.404053,191.927856 
	C525.404053,166.472275 525.404053,141.273270 525.404053,115.948471 
	C519.658569,115.948471 514.220459,115.948471 508.315613,115.948471 
	C508.315613,126.941338 508.315613,137.720612 508.315430,149.499908 
M236.845947,55.481766 
	C241.072220,56.870800 245.298477,58.259834 250.083679,59.832573 
	C251.382263,56.913307 252.760254,53.815529 254.293488,50.368759 
	C244.068909,44.865688 233.982452,42.771103 223.338669,47.136116 
	C220.996918,48.096481 218.714752,49.944866 217.166473,51.967186 
	C210.898712,60.154022 214.510025,71.035553 224.724594,75.011162 
	C229.048233,76.693970 233.752243,77.540955 237.833496,79.641792 
	C239.704239,80.604759 241.800385,83.979187 241.402115,85.709435 
	C240.993805,87.483444 237.670914,89.718216 235.610184,89.731987 
	C231.934143,89.756538 228.137894,88.570351 224.599518,87.308350 
	C221.558701,86.223816 218.807541,84.327164 215.790756,82.716171 
	C215.065689,84.023048 214.472061,85.007988 213.958298,86.032944 
	C210.839432,92.255150 210.957367,92.199501 216.790070,95.534821 
	C223.719681,99.497391 231.115891,100.649826 238.920456,99.970337 
	C247.756699,99.201012 253.897217,93.305283 254.774811,84.784821 
	C255.490219,77.839020 250.889938,71.751465 242.827011,69.019447 
	C239.995651,68.060066 237.103195,67.267365 234.314697,66.199905 
	C232.476059,65.496063 230.436935,64.770851 229.113052,63.435230 
	C228.000214,62.312542 227.041016,60.104263 227.390335,58.725281 
	C227.747253,57.316303 229.607193,55.899891 231.130936,55.287819 
	C232.551270,54.717289 234.394653,55.199966 236.845947,55.481766 
M466.341949,183.125336 
	C458.546448,161.761948 450.789032,140.384384 442.864166,119.069061 
	C442.370331,117.740715 440.633057,116.089806 439.354889,115.980103 
	C434.920624,115.599548 430.433655,115.833237 425.910889,115.833237 
	C425.910889,116.738235 425.773315,117.278267 425.930573,117.711220 
	C434.656464,141.737000 443.387695,165.760956 452.223480,189.746368 
	C452.588867,190.738251 453.924744,192.000458 454.863098,192.047516 
	C459.562256,192.283157 464.279602,192.155441 469.541962,192.155441 
	C468.406006,188.821045 467.556854,186.328568 466.341949,183.125336 
M334.776855,84.273506 
	C337.912292,76.022453 341.047699,67.771400 344.573578,58.492798 
	C345.737793,61.465870 346.482941,63.293663 347.172546,65.142181 
	C351.006134,75.418304 354.762848,85.724022 358.721130,95.951775 
	C359.298401,97.443420 360.677307,99.504227 361.924347,99.689102 
	C365.391174,100.203072 368.983917,99.867485 373.109100,99.867485 
	C366.010956,82.004265 359.305817,65.019287 352.501709,48.074043 
	C350.443756,42.948864 345.847656,45.598019 342.430969,45.451721 
	C340.752686,45.379864 338.071686,47.148071 337.391235,48.743328 
	C331.653870,62.194305 326.268555,75.795586 320.791656,89.357430 
	C319.460968,92.652512 318.183105,95.968918 316.819580,99.431328 
	C328.546967,100.845924 328.543030,100.844467 332.156464,91.042923 
	C332.903809,89.015633 333.692322,87.003517 334.776855,84.273506 
M430.932220,68.500031 
	C430.932220,78.778320 430.932220,89.056602 430.932220,99.906570 
	C442.800659,99.906570 454.081604,99.909470 465.362518,99.905449 
	C471.901276,99.903122 471.916870,99.897629 471.707886,93.208252 
	C471.678192,92.256561 471.411041,91.312286 471.151520,89.748428 
	C461.779236,89.748428 452.545898,89.748428 443.320557,89.748428 
	C443.320557,78.162598 443.320557,67.237961 443.320557,55.766022 
	C451.241180,55.766022 458.868195,55.572300 466.478790,55.841923 
	C470.740356,55.992889 470.902283,53.708580 470.882294,50.525429 
	C470.862640,47.402199 470.846680,45.036236 466.530884,45.157562 
	C457.541779,45.410275 448.540558,45.233150 439.544312,45.232731 
	C436.787231,45.232601 434.030182,45.232712 430.932220,45.232712 
	C430.932220,53.201954 430.932220,60.351002 430.932220,68.500031 
M664.153687,95.406784 
	C674.047180,102.010574 686.299255,102.196861 695.029846,95.876205 
	C699.924072,92.332947 702.563538,86.617249 701.325195,81.900223 
	C698.314453,84.000748 695.481201,86.261223 692.389771,88.083664 
	C680.844299,94.889862 668.827332,88.227768 668.727417,75.051743 
	C668.699585,71.385597 668.722351,67.719078 668.722229,64.052727 
	C668.722046,57.962395 668.722168,51.872059 668.722168,45.749027 
	C664.224609,45.749027 660.479980,45.749027 656.754822,45.749027 
	C656.754822,57.872234 656.122131,69.710823 657.067932,81.421944 
	C657.443481,86.071014 661.319824,90.437347 664.153687,95.406784 
M498.981506,117.078674 
	C493.443268,116.484215 487.905029,115.889755 482.232819,115.280922 
	C477.173828,130.711716 472.365051,145.386230 467.551331,160.059128 
	C464.900391,168.139465 467.752899,174.734299 476.086792,179.075378 
	C483.676575,158.657242 491.248352,138.287521 498.981506,117.078674 
M130.165680,146.693954 
	C132.359772,143.742920 134.553879,140.791885 137.384888,136.984207 
	C131.457581,137.162537 126.671745,137.464539 126.781433,129.143768 
	C111.992043,148.952911 98.224144,167.393860 84.057076,186.369476 
	C86.860184,187.482346 89.112984,188.078217 91.053459,189.209732 
	C95.000427,191.511261 97.377594,190.415253 100.018280,186.798492 
	C109.739174,173.484436 119.813087,160.428101 130.165680,146.693954 
M271.820251,131.224228 
	C272.950500,128.509674 274.080780,125.795135 275.296417,122.875572 
	C264.186707,115.994438 252.603882,113.675346 240.136520,115.421844 
	C233.848206,116.302750 228.339325,118.707809 223.990570,123.481705 
	C217.240585,130.891556 217.102173,143.437805 223.721024,150.067673 
	C225.054260,134.900055 239.025375,126.557198 250.644348,129.945084 
	C256.796448,131.738922 262.810364,134.006699 269.357513,136.219666 
	C269.904968,135.095993 270.688202,133.488342 271.820251,131.224228 
M701.920105,122.432770 
	C694.157837,130.981873 693.572266,142.800888 700.547119,150.143829 
	C703.157288,133.934265 715.155945,126.015938 730.669250,130.573547 
	C735.846252,132.094482 740.784058,134.429306 746.178833,136.527237 
	C748.147217,132.143204 750.155212,127.670975 752.726746,121.943604 
	C745.648804,119.633415 739.257874,116.634521 732.559631,115.570641 
	C721.949341,113.885399 711.267273,114.109268 701.920105,122.432770 
M310.723206,53.621624 
	C310.723236,52.622913 310.580750,51.599815 310.746735,50.629490 
	C311.751282,44.757164 307.906219,45.321957 304.043427,45.146664 
	C299.710266,44.950027 297.603027,45.930290 298.000610,50.870113 
	C298.448090,56.429905 298.103607,62.053432 298.103607,68.157005 
	C293.766846,68.157005 289.523163,67.007698 286.706299,68.518570 
	C284.429413,69.739799 283.871735,74.166351 282.121185,78.150078 
	C288.302704,78.150078 292.894958,78.150078 298.080292,78.150078 
	C298.080292,85.546722 298.080292,92.435364 298.080292,99.903229 
	C300.804047,99.903229 302.953156,99.655235 305.023743,99.953110 
	C309.833008,100.644974 310.894928,98.465385 310.811707,94.035675 
	C310.564728,80.890930 310.722870,67.738564 310.723206,53.621624 
M275.804779,71.500015 
	C275.804840,64.510551 275.445801,57.496582 275.920624,50.539528 
	C276.288483,45.149952 273.440094,45.073494 269.535858,45.145649 
	C265.830963,45.214123 262.852875,44.813965 262.994354,50.381462 
	C263.374664,65.349205 263.114563,80.332985 263.139771,95.310356 
	C263.142181,96.739372 263.362396,98.168022 263.483002,99.615143 
	C267.707336,99.615143 271.458496,99.615143 275.804535,99.615143 
	C275.804535,90.379852 275.804535,81.439934 275.804779,71.500015 
M702.638672,69.498688 
	C702.638672,61.608845 702.638672,53.719002 702.638672,45.862774 
	C691.641602,43.743534 691.062805,44.190041 691.062744,54.641693 
	C691.062744,56.466541 691.062683,58.291393 691.062683,60.116241 
	C691.062683,66.306534 691.062744,72.496819 691.062744,78.687111 
	C691.653931,79.018089 692.245117,79.349060 692.836304,79.680038 
	C695.981934,76.529831 699.127563,73.379623 702.638672,69.498688 
M675.804749,147.439789 
	C668.592468,147.439789 661.380188,147.439789 653.928162,147.439789 
	C653.283630,152.050674 652.677551,156.386734 652.053162,160.853516 
	C660.400574,160.853516 668.252991,160.853516 676.290405,160.853516 
	C676.290405,156.422638 676.290405,152.309250 675.804749,147.439789 
M323.760986,147.144775 
	C322.309235,147.227112 320.857483,147.309448 319.252167,147.400482 
	C318.636841,152.066971 318.064423,156.407791 317.481415,160.828918 
	C325.859528,160.828918 333.720856,160.828918 341.502625,160.828918 
	C341.502625,156.107590 341.502625,151.745209 341.502625,147.144806 
	C335.634735,147.144806 330.170471,147.144806 323.760986,147.144775 
M467.994263,75.271126 
	C467.994263,73.001961 467.994263,70.732796 467.994263,68.176895 
	C462.416351,68.176895 457.385559,68.176895 451.954987,68.176895 
	C451.555878,71.394943 451.185913,74.377853 450.753326,77.865807 
	C456.371094,77.865807 461.140442,77.933922 465.903442,77.790771 
	C466.600372,77.769821 467.267120,76.742905 467.994263,75.271126 
z"/>
<path fill="#33398F" opacity="1.000000" stroke="none" 
	d="
M142.936157,154.915619 
	C145.719925,151.240433 148.295212,147.855194 151.187439,144.053360 
	C152.526413,146.603424 153.095078,148.993347 154.607285,150.220932 
	C156.325851,151.616013 159.203400,153.011002 160.988861,152.468796 
	C162.571671,151.988144 164.324188,148.846939 164.312958,146.889923 
	C164.262436,138.082230 163.477631,129.281708 163.231689,120.470955 
	C163.109589,116.096474 161.393402,115.280891 157.568954,116.791168 
	C149.057999,120.152191 140.489090,123.366829 131.931122,126.607666 
	C131.206635,126.882019 130.387177,126.905556 128.650955,127.219193 
	C130.860336,123.745178 132.619507,120.979080 134.273056,118.379074 
	C133.652756,117.644745 133.408554,117.164795 133.246445,117.191086 
	C124.422905,118.621948 115.052429,120.117935 109.241119,127.242355 
	C97.253876,141.938248 86.267914,157.450684 74.861229,172.620590 
	C73.683350,174.187073 72.446136,175.708939 70.916466,177.659561 
	C67.713844,174.654800 64.853645,171.971313 61.462563,168.789734 
	C77.637138,147.083084 93.681618,125.551041 110.133980,103.471603 
	C111.120308,105.964157 111.361328,108.489777 112.742981,109.615738 
	C114.816597,111.305588 117.652084,112.654594 120.243179,112.808456 
	C121.212158,112.865997 123.348259,109.159035 123.334183,107.180016 
	C123.266800,97.707260 122.484604,88.241745 122.290207,78.766808 
	C122.199684,74.354752 120.228081,74.068695 116.909386,75.396034 
	C109.650291,78.299362 102.418358,81.272659 95.126549,84.091171 
	C91.829857,85.365448 88.335762,87.031441 89.310150,90.928719 
	C89.919052,93.364120 92.932159,95.198433 95.484055,97.974312 
	C81.878128,116.141823 67.356491,135.532028 52.750931,155.034317 
	C38.512405,132.804779 38.961929,94.741806 62.398884,69.085609 
	C86.742821,42.436546 125.528389,36.363529 156.183258,54.504242 
	C187.430893,72.995728 200.783508,109.695541 189.173935,144.438873 
	C177.512131,179.338516 143.017273,196.377930 113.847404,193.631683 
	C123.640999,180.600998 133.184341,167.903290 142.936157,154.915619 
z"/>
<path fill="#33398F" opacity="1.000000" stroke="none" 
	d="
M359.113251,126.037766 
	C359.113251,122.397308 359.113251,119.250198 359.113251,114.942963 
	C373.344513,115.500977 387.349213,115.142380 401.089569,116.877411 
	C411.991180,118.253990 417.828583,125.958656 418.964142,136.173492 
	C420.471588,149.733658 416.362518,158.862015 406.375031,164.156479 
	C405.646301,164.542770 404.939850,164.971024 404.091644,165.454697 
	C409.362549,174.189072 414.573029,182.823334 420.207611,192.160370 
	C413.853485,192.160370 408.257660,192.335800 402.689423,192.021622 
	C401.485107,191.953674 400.014191,190.333771 399.292816,189.070740 
	C396.162231,183.589417 392.912506,178.128799 390.395844,172.359741 
	C388.507233,168.030396 385.902771,166.246597 381.320862,166.970657 
	C379.878448,167.198593 378.369659,167.006226 376.408386,167.006226 
	C376.408386,175.392334 376.408386,183.475937 376.408386,191.859314 
	C370.527618,191.859314 365.124786,191.859314 359.113251,191.859314 
	C359.113251,170.041595 359.113251,148.286346 359.113251,126.037766 
M389.281921,152.999634 
	C390.608398,152.967163 391.952972,153.063446 393.258301,152.880341 
	C399.482178,152.007233 403.026215,147.983521 403.125061,141.790680 
	C403.235657,134.859970 400.261200,130.852890 393.520813,130.228958 
	C387.857666,129.704742 382.107422,130.121185 376.534882,130.121185 
	C376.534882,138.060532 376.534882,145.435486 376.534882,152.999649 
	C380.715454,152.999649 384.527893,152.999649 389.281921,152.999634 
z"/>
<path fill="#343A8F" opacity="1.000000" stroke="none" 
	d="
M608.806580,173.229858 
	C610.491150,174.039413 611.827881,174.695908 613.528259,175.531021 
	C606.704773,185.804718 596.860535,190.555725 585.330627,192.600098 
	C564.961731,196.211746 544.301941,183.890289 538.980103,164.934219 
	C531.997986,140.064346 548.573059,117.088326 575.049683,115.167000 
	C588.487061,114.191887 600.402283,117.913124 610.027466,127.720016 
	C611.397400,129.115753 612.498230,130.775513 613.906799,132.542938 
	C608.549377,134.995102 603.580444,137.269440 600.228577,138.803619 
	C593.595337,135.608383 588.420349,132.105011 582.717102,130.590179 
	C572.553406,127.890602 561.247559,134.399002 556.581482,144.470688 
	C552.091125,154.163086 555.371704,166.293549 564.309509,173.046448 
	C573.208618,179.770111 585.540100,180.179962 593.314636,172.902802 
	C597.377380,169.100006 600.509094,168.585266 604.816956,171.459991 
	C605.905640,172.186523 607.238220,172.547699 608.806580,173.229858 
z"/>
<path fill="#363C90" opacity="1.000000" stroke="none" 
	d="
M346.848877,184.115051 
	C346.848877,187.038925 346.848877,189.501160 346.848877,192.263153 
	C327.694000,192.263153 308.962646,192.263153 289.880005,192.263153 
	C289.880005,166.958511 289.880005,141.751282 289.880005,116.265198 
	C308.307648,116.265198 326.688354,116.265198 345.348511,116.265198 
	C345.348511,120.782677 345.348511,125.185150 345.348511,129.978073 
	C332.512024,129.978073 319.924316,129.978073 307.034180,129.978073 
	C307.034180,146.077469 307.034180,161.790085 307.034180,178.190765 
	C320.101227,178.190765 333.161682,178.190765 346.567413,178.190765 
	C346.683899,180.451385 346.766418,182.052399 346.848877,184.115051 
z"/>
<path fill="#353B90" opacity="1.000000" stroke="none" 
	d="
M672.876160,192.562088 
	C656.452637,192.561935 640.510132,192.561935 624.341003,192.561935 
	C624.341003,166.920410 624.341003,141.838135 624.341003,116.372849 
	C642.691895,116.372849 661.063965,116.372849 679.778931,116.372849 
	C679.778931,120.625130 679.778931,125.012917 679.778931,129.941132 
	C667.120422,129.941132 654.399719,129.941132 641.437134,129.941132 
	C641.437134,146.192886 641.437134,161.913086 641.437134,178.295364 
	C654.733704,178.295364 667.794983,178.295364 681.100952,178.295364 
	C681.100952,183.218109 681.100952,187.485703 681.100952,192.562241 
	C678.516846,192.562241 675.937073,192.562241 672.876160,192.562088 
z"/>
<path fill="#343A8F" opacity="1.000000" stroke="none" 
	d="
M647.398926,80.199524 
	C642.429077,94.168129 632.163330,100.745079 616.681335,100.167831 
	C604.135803,99.700081 593.953674,91.741302 590.690491,79.852280 
	C585.088013,59.440189 603.109253,41.381474 624.968811,45.502747 
	C641.778381,48.671925 650.769775,62.347363 647.398926,80.199524 
M634.969116,65.979927 
	C633.500977,63.986702 632.278137,61.738075 630.518616,60.048206 
	C625.264099,55.001545 618.928650,54.305195 612.490784,57.049583 
	C606.049683,59.795361 602.200073,64.920158 602.057068,72.132324 
	C601.914124,79.340477 605.610474,84.529861 611.825684,87.722664 
	C618.427979,91.114250 624.816528,89.998695 630.365295,85.261909 
	C636.173523,80.303558 637.506836,73.946045 634.969116,65.979927 
z"/>
<path fill="#383E92" opacity="1.000000" stroke="none" 
	d="
M582.683716,97.788353 
	C582.359131,98.709030 581.887268,99.710106 581.296509,99.786125 
	C571.328247,101.068771 570.643188,100.688522 565.897400,91.857140 
	C565.032288,90.247322 564.143250,88.650330 563.286743,87.036034 
	C560.283386,81.375916 560.286926,81.374023 552.898682,82.358391 
	C552.898682,87.885139 552.898682,93.485199 552.898682,99.468857 
	C548.763062,99.468857 545.029907,99.468857 540.855286,99.468857 
	C540.855286,81.627495 540.855286,63.628342 540.855286,45.716904 
	C550.085876,45.716904 559.219299,45.190887 568.261658,45.873299 
	C576.376709,46.485737 581.373718,51.593323 582.794128,58.740360 
	C584.507141,67.359726 581.542236,74.966774 574.841370,79.159698 
	C574.148621,79.593208 573.474060,80.055870 572.456909,80.724709 
	C575.840210,86.365746 579.160645,91.902016 582.683716,97.788353 
M553.040100,55.848732 
	C553.040100,61.094193 553.040100,66.339653 553.040100,72.280655 
	C557.696716,71.909019 562.176025,71.914307 566.501465,71.101326 
	C570.589111,70.333076 571.897644,66.853844 571.705139,63.095760 
	C571.526123,59.599247 570.265137,56.346771 566.171753,55.893681 
	C562.075439,55.440273 557.925598,55.470852 553.040100,55.848732 
z"/>
<path fill="#343A8F" opacity="1.000000" stroke="none" 
	d="
M740.183472,150.750244 
	C749.357727,154.884079 753.179993,162.070541 752.691223,171.360153 
	C752.197571,180.741867 747.052856,187.364197 738.270813,190.494720 
	C721.953369,196.311371 707.221069,191.787949 693.495728,182.551743 
	C692.679199,182.002304 692.142700,179.872040 692.532104,178.900818 
	C694.057495,175.096207 696.006897,171.461655 697.677246,168.014755 
	C703.195068,170.900650 708.118408,174.030533 713.456055,176.083176 
	C717.382996,177.593353 721.829529,178.046692 726.085999,178.316193 
	C729.749695,178.548187 733.088013,177.129700 734.153748,173.052612 
	C735.231567,168.929245 733.559570,165.791428 729.849915,163.983231 
	C726.883362,162.537231 723.760620,161.332642 720.598938,160.380264 
	C710.080933,157.211975 707.592712,148.903946 714.391541,140.767365 
	C722.984375,144.080841 731.415894,147.332108 740.183472,150.750244 
z"/>
<path fill="#343A8F" opacity="1.000000" stroke="none" 
	d="
M259.197388,191.365356 
	C243.767548,195.334473 230.253082,191.441559 217.511765,183.380707 
	C215.029266,181.810135 214.597824,180.249786 216.041626,177.692352 
	C217.827240,174.529510 219.273911,171.175308 220.853561,167.931412 
	C226.003204,170.708130 230.683701,173.906631 235.842361,175.807556 
	C240.250397,177.431870 245.183685,177.945618 249.928787,178.240875 
	C253.726089,178.477158 256.751129,176.378815 257.521149,172.361191 
	C258.229553,168.665024 256.532990,165.749069 253.250839,164.131821 
	C250.141220,162.599564 246.865402,161.315231 243.543381,160.320053 
	C233.165756,157.211273 230.684616,148.356064 237.576660,140.859406 
	C244.135773,143.300781 250.428345,145.655411 256.730011,147.985397 
	C264.843872,150.985397 272.683594,154.327972 275.019806,163.913696 
	C278.121521,176.640305 272.704559,186.155853 259.197388,191.365356 
z"/>
<path fill="#353B90" opacity="1.000000" stroke="none" 
	d="
M514.970886,79.010193 
	C513.039124,78.935730 511.582886,78.861282 509.987549,78.779724 
	C509.987549,75.560638 509.987549,72.633675 509.987549,69.354683 
	C517.117004,69.354683 524.046753,69.354683 531.711060,69.354683 
	C531.711060,75.087234 531.913940,81.005089 531.574280,86.891655 
	C531.484680,88.444359 529.957275,90.149788 528.685913,91.360870 
	C519.523071,100.089394 508.570801,102.243828 496.808502,98.547684 
	C485.496277,94.992958 478.949127,86.895859 477.548828,74.906517 
	C475.842468,60.296791 486.980927,46.704243 502.064972,45.072670 
	C511.617889,44.039371 523.095093,46.431305 528.939270,54.454208 
	C526.661133,55.765610 524.314514,56.912140 522.199646,58.390255 
	C520.011230,59.919769 518.426025,59.867283 516.040527,58.313698 
	C510.281311,54.562969 503.973206,54.462173 498.113831,58.055214 
	C492.345947,61.592148 489.152618,66.858292 489.860443,73.936310 
	C490.557251,80.904144 494.396088,85.648315 500.734589,88.169159 
	C507.146790,90.719307 513.216125,89.643372 518.309326,84.900017 
	C519.571960,83.724129 520.080200,81.738220 521.362854,79.317627 
	C518.601074,79.174118 517.023743,79.092163 514.970886,79.010193 
z"/>
<path fill="#989EAC" opacity="1.000000" stroke="none" 
	d="
M421.783081,65.586060 
	C420.676880,72.448235 417.853668,77.649673 410.885590,80.478188 
	C414.658264,86.746971 418.288391,92.778931 421.950897,98.864655 
	C412.996826,101.905075 408.967255,100.408501 404.979095,92.782005 
	C404.054138,91.013176 402.847015,89.337097 402.243103,87.465584 
	C400.501862,82.069344 396.919556,80.774399 391.314453,82.482552 
	C391.314453,87.898094 391.314453,93.489677 391.314453,99.487328 
	C387.091370,99.487328 383.387360,99.487328 379.356140,99.487328 
	C379.356140,81.494087 379.356140,63.620579 379.356140,44.649616 
	C389.646484,45.167328 399.790131,45.012341 409.722351,46.385986 
	C417.797394,47.502785 421.836914,54.842525 421.783081,65.586060 
M391.086121,67.330460 
	C391.191956,68.761436 391.297791,70.192413 391.425690,71.921478 
	C395.252167,71.921478 398.713409,72.101433 402.148682,71.879211 
	C407.272430,71.547768 409.939209,68.845467 410.133484,64.216850 
	C410.361267,58.788387 408.391144,55.998894 403.016449,55.349136 
	C399.188721,54.886395 395.259979,55.259342 391.086304,55.259342 
	C391.086304,59.445385 391.086304,62.910358 391.086121,67.330460 
z"/>
<path fill="#3A3F92" opacity="1.000000" stroke="none" 
	d="
M746.715393,79.935593 
	C739.676392,80.988235 733.009460,81.936409 725.813843,82.959785 
	C725.813843,88.011330 725.813843,93.591797 725.813843,99.512123 
	C721.626587,99.512123 717.885010,99.512123 713.740601,99.512123 
	C713.740601,81.756645 713.740601,63.908356 713.740601,46.273884 
	C723.722290,46.273884 733.678589,45.650841 743.510132,46.489399 
	C750.245422,47.063866 754.852051,53.108963 755.875793,59.810936 
	C757.225525,68.647552 754.238037,75.453217 746.715393,79.935593 
M744.198547,66.597832 
	C746.132935,56.632870 740.256409,54.066772 725.896729,56.247284 
	C725.896729,61.293922 725.896729,66.379402 725.896729,71.633995 
	C726.662903,71.762611 727.293030,71.953667 727.924988,71.959953 
	C730.924377,71.989738 734.091248,72.568031 736.875244,71.791740 
	C739.464661,71.069702 741.646179,68.885147 744.198547,66.597832 
z"/>
<path fill="#3A3F92" opacity="1.000000" stroke="none" 
	d="
M508.315521,148.999908 
	C508.315613,137.720612 508.315613,126.941338 508.315613,115.948471 
	C514.220459,115.948471 519.658569,115.948471 525.404053,115.948471 
	C525.404053,141.273270 525.404053,166.472275 525.404053,191.927856 
	C519.776001,191.927856 514.348145,191.927856 508.315430,191.927856 
	C508.315430,177.719818 508.315430,163.609863 508.315521,148.999908 
z"/>
<path fill="#989EAC" opacity="1.000000" stroke="none" 
	d="
M236.448883,55.350399 
	C234.394653,55.199966 232.551270,54.717289 231.130936,55.287819 
	C229.607193,55.899891 227.747253,57.316303 227.390335,58.725281 
	C227.041016,60.104263 228.000214,62.312542 229.113052,63.435230 
	C230.436935,64.770851 232.476059,65.496063 234.314697,66.199905 
	C237.103195,67.267365 239.995651,68.060066 242.827011,69.019447 
	C250.889938,71.751465 255.490219,77.839020 254.774811,84.784821 
	C253.897217,93.305283 247.756699,99.201012 238.920456,99.970337 
	C231.115891,100.649826 223.719681,99.497391 216.790070,95.534821 
	C210.957367,92.199501 210.839432,92.255150 213.958298,86.032944 
	C214.472061,85.007988 215.065689,84.023048 215.790756,82.716171 
	C218.807541,84.327164 221.558701,86.223816 224.599518,87.308350 
	C228.137894,88.570351 231.934143,89.756538 235.610184,89.731987 
	C237.670914,89.718216 240.993805,87.483444 241.402115,85.709435 
	C241.800385,83.979187 239.704239,80.604759 237.833496,79.641792 
	C233.752243,77.540955 229.048233,76.693970 224.724594,75.011162 
	C214.510025,71.035553 210.898712,60.154022 217.166473,51.967186 
	C218.714752,49.944866 220.996918,48.096481 223.338669,47.136116 
	C233.982452,42.771103 244.068909,44.865688 254.293488,50.368759 
	C252.760254,53.815529 251.382263,56.913307 250.083679,59.832573 
	C245.298477,58.259834 241.072220,56.870800 236.448883,55.350399 
z"/>
<path fill="#33398F" opacity="1.000000" stroke="none" 
	d="
M466.524841,183.480713 
	C467.556854,186.328568 468.406006,188.821045 469.541962,192.155441 
	C464.279602,192.155441 459.562256,192.283157 454.863098,192.047516 
	C453.924744,192.000458 452.588867,190.738251 452.223480,189.746368 
	C443.387695,165.760956 434.656464,141.737000 425.930573,117.711220 
	C425.773315,117.278267 425.910889,116.738235 425.910889,115.833237 
	C430.433655,115.833237 434.920624,115.599548 439.354889,115.980103 
	C440.633057,116.089806 442.370331,117.740715 442.864166,119.069061 
	C450.789032,140.384384 458.546448,161.761948 466.524841,183.480713 
z"/>
<path fill="#999FAC" opacity="1.000000" stroke="none" 
	d="
M334.619354,84.628952 
	C333.692322,87.003517 332.903809,89.015633 332.156464,91.042923 
	C328.543030,100.844467 328.546967,100.845924 316.819580,99.431328 
	C318.183105,95.968918 319.460968,92.652512 320.791656,89.357430 
	C326.268555,75.795586 331.653870,62.194305 337.391235,48.743328 
	C338.071686,47.148071 340.752686,45.379864 342.430969,45.451721 
	C345.847656,45.598019 350.443756,42.948864 352.501709,48.074043 
	C359.305817,65.019287 366.010956,82.004265 373.109100,99.867485 
	C368.983917,99.867485 365.391174,100.203072 361.924347,99.689102 
	C360.677307,99.504227 359.298401,97.443420 358.721130,95.951775 
	C354.762848,85.724022 351.006134,75.418304 347.172546,65.142181 
	C346.482941,63.293663 345.737793,61.465870 344.573578,58.492798 
	C341.047699,67.771400 337.912292,76.022453 334.619354,84.628952 
z"/>
<path fill="#9AA0AD" opacity="1.000000" stroke="none" 
	d="
M430.932220,68.000046 
	C430.932220,60.351002 430.932220,53.201954 430.932220,45.232712 
	C434.030182,45.232712 436.787231,45.232601 439.544312,45.232731 
	C448.540558,45.233150 457.541779,45.410275 466.530884,45.157562 
	C470.846680,45.036236 470.862640,47.402199 470.882294,50.525429 
	C470.902283,53.708580 470.740356,55.992889 466.478790,55.841923 
	C458.868195,55.572300 451.241180,55.766022 443.320557,55.766022 
	C443.320557,67.237961 443.320557,78.162598 443.320557,89.748428 
	C452.545898,89.748428 461.779236,89.748428 471.151520,89.748428 
	C471.411041,91.312286 471.678192,92.256561 471.707886,93.208252 
	C471.916870,99.897629 471.901276,99.903122 465.362518,99.905449 
	C454.081604,99.909470 442.800659,99.906570 430.932220,99.906570 
	C430.932220,89.056602 430.932220,78.778320 430.932220,68.000046 
z"/>
<path fill="#3A3F92" opacity="1.000000" stroke="none" 
	d="
M663.878052,95.169594 
	C661.319824,90.437347 657.443481,86.071014 657.067932,81.421944 
	C656.122131,69.710823 656.754822,57.872234 656.754822,45.749027 
	C660.479980,45.749027 664.224609,45.749027 668.722168,45.749027 
	C668.722168,51.872059 668.722046,57.962395 668.722229,64.052727 
	C668.722351,67.719078 668.699585,71.385597 668.727417,75.051743 
	C668.827332,88.227768 680.844299,94.889862 692.389771,88.083664 
	C695.481201,86.261223 698.314453,84.000748 701.325195,81.900223 
	C702.563538,86.617249 699.924072,92.332947 695.029846,95.876205 
	C686.299255,102.196861 674.047180,102.010574 663.878052,95.169594 
z"/>
<path fill="#33398F" opacity="1.000000" stroke="none" 
	d="
M498.900818,117.498245 
	C491.248352,138.287521 483.676575,158.657242 476.086792,179.075378 
	C467.752899,174.734299 464.900391,168.139465 467.551331,160.059128 
	C472.365051,145.386230 477.173828,130.711716 482.232819,115.280922 
	C487.905029,115.889755 493.443268,116.484215 498.900818,117.498245 
z"/>
<path fill="#373C91" opacity="1.000000" stroke="none" 
	d="
M129.959930,146.984375 
	C119.813087,160.428101 109.739174,173.484436 100.018280,186.798492 
	C97.377594,190.415253 95.000427,191.511261 91.053459,189.209732 
	C89.112984,188.078217 86.860184,187.482346 84.057076,186.369476 
	C98.224144,167.393860 111.992043,148.952911 126.781433,129.143768 
	C126.671745,137.464539 131.457581,137.162537 137.384888,136.984207 
	C134.553879,140.791885 132.359772,143.742920 129.959930,146.984375 
z"/>
<path fill="#989EAC" opacity="1.000000" stroke="none" 
	d="
M271.645844,131.552460 
	C270.688202,133.488342 269.904968,135.095993 269.357513,136.219666 
	C262.810364,134.006699 256.796448,131.738922 250.644348,129.945084 
	C239.025375,126.557198 225.054260,134.900055 223.721024,150.067673 
	C217.102173,143.437805 217.240585,130.891556 223.990570,123.481705 
	C228.339325,118.707809 233.848206,116.302750 240.136520,115.421844 
	C252.603882,113.675346 264.186707,115.994438 275.296417,122.875572 
	C274.080780,125.795135 272.950500,128.509674 271.645844,131.552460 
z"/>
<path fill="#989EAB" opacity="1.000000" stroke="none" 
	d="
M702.184753,122.186546 
	C711.267273,114.109268 721.949341,113.885399 732.559631,115.570641 
	C739.257874,116.634521 745.648804,119.633415 752.726746,121.943604 
	C750.155212,127.670975 748.147217,132.143204 746.178833,136.527237 
	C740.784058,134.429306 735.846252,132.094482 730.669250,130.573547 
	C715.155945,126.015938 703.157288,133.934265 700.547119,150.143829 
	C693.572266,142.800888 694.157837,130.981873 702.184753,122.186546 
z"/>
<path fill="#999FAD" opacity="1.000000" stroke="none" 
	d="
M310.722931,54.105400 
	C310.722870,67.738564 310.564728,80.890930 310.811707,94.035675 
	C310.894928,98.465385 309.833008,100.644974 305.023743,99.953110 
	C302.953156,99.655235 300.804047,99.903229 298.080292,99.903229 
	C298.080292,92.435364 298.080292,85.546722 298.080292,78.150078 
	C292.894958,78.150078 288.302704,78.150078 282.121185,78.150078 
	C283.871735,74.166351 284.429413,69.739799 286.706299,68.518570 
	C289.523163,67.007698 293.766846,68.157005 298.103607,68.157005 
	C298.103607,62.053432 298.448090,56.429905 298.000610,50.870113 
	C297.603027,45.930290 299.710266,44.950027 304.043427,45.146664 
	C307.906219,45.321957 311.751282,44.757164 310.746735,50.629490 
	C310.580750,51.599815 310.723236,52.622913 310.722931,54.105400 
z"/>
<path fill="#9EA3B0" opacity="1.000000" stroke="none" 
	d="
M275.804657,72.000015 
	C275.804535,81.439934 275.804535,90.379852 275.804535,99.615143 
	C271.458496,99.615143 267.707336,99.615143 263.483002,99.615143 
	C263.362396,98.168022 263.142181,96.739372 263.139771,95.310356 
	C263.114563,80.332985 263.374664,65.349205 262.994354,50.381462 
	C262.852875,44.813965 265.830963,45.214123 269.535858,45.145649 
	C273.440094,45.073494 276.288483,45.149952 275.920624,50.539528 
	C275.445801,57.496582 275.804840,64.510551 275.804657,72.000015 
z"/>
<path fill="#9AA0AD" opacity="1.000000" stroke="none" 
	d="
M702.455933,69.864052 
	C699.127563,73.379623 695.981934,76.529831 692.836304,79.680038 
	C692.245117,79.349060 691.653931,79.018089 691.062744,78.687111 
	C691.062744,72.496819 691.062683,66.306534 691.062683,60.116241 
	C691.062683,58.291393 691.062744,56.466541 691.062744,54.641693 
	C691.062805,44.190041 691.641602,43.743534 702.638672,45.862774 
	C702.638672,53.719002 702.638672,61.608845 702.455933,69.864052 
z"/>
<path fill="#353B90" opacity="1.000000" stroke="none" 
	d="
M676.047607,147.817825 
	C676.290405,152.309250 676.290405,156.422638 676.290405,160.853516 
	C668.252991,160.853516 660.400574,160.853516 652.053162,160.853516 
	C652.677551,156.386734 653.283630,152.050674 653.928162,147.439789 
	C661.380188,147.439789 668.592468,147.439789 676.047607,147.817825 
z"/>
<path fill="#363C90" opacity="1.000000" stroke="none" 
	d="
M324.233612,147.144791 
	C330.170471,147.144806 335.634735,147.144806 341.502625,147.144806 
	C341.502625,151.745209 341.502625,156.107590 341.502625,160.828918 
	C333.720856,160.828918 325.859528,160.828918 317.481415,160.828918 
	C318.064423,156.407791 318.636841,152.066971 319.252167,147.400482 
	C320.857483,147.309448 322.309235,147.227112 324.233612,147.144791 
z"/>
<path fill="#999FAD" opacity="1.000000" stroke="none" 
	d="
M467.971039,75.726288 
	C467.267120,76.742905 466.600372,77.769821 465.903442,77.790771 
	C461.140442,77.933922 456.371094,77.865807 450.753326,77.865807 
	C451.185913,74.377853 451.555878,71.394943 451.954987,68.176895 
	C457.385559,68.176895 462.416351,68.176895 467.994263,68.176895 
	C467.994263,70.732796 467.994263,73.001961 467.971039,75.726288 
z"/>
<path fill="#FCFCFD" opacity="1.000000" stroke="none" 
	d="
M388.811127,152.999634 
	C384.527893,152.999649 380.715454,152.999649 376.534882,152.999649 
	C376.534882,145.435486 376.534882,138.060532 376.534882,130.121185 
	C382.107422,130.121185 387.857666,129.704742 393.520813,130.228958 
	C400.261200,130.852890 403.235657,134.859970 403.125061,141.790680 
	C403.026215,147.983521 399.482178,152.007233 393.258301,152.880341 
	C391.952972,153.063446 390.608398,152.967163 388.811127,152.999634 
z"/>
<path fill="#FCFCFE" opacity="1.000000" stroke="none" 
	d="
M635.080322,66.365952 
	C637.506836,73.946045 636.173523,80.303558 630.365295,85.261909 
	C624.816528,89.998695 618.427979,91.114250 611.825684,87.722664 
	C605.610474,84.529861 601.914124,79.340477 602.057068,72.132324 
	C602.200073,64.920158 606.049683,59.795361 612.490784,57.049583 
	C618.928650,54.305195 625.264099,55.001545 630.518616,60.048206 
	C632.278137,61.738075 633.500977,63.986702 635.080322,66.365952 
z"/>
<path fill="#FAFAFC" opacity="1.000000" stroke="none" 
	d="
M553.419678,55.569008 
	C557.925598,55.470852 562.075439,55.440273 566.171753,55.893681 
	C570.265137,56.346771 571.526123,59.599247 571.705139,63.095760 
	C571.897644,66.853844 570.589111,70.333076 566.501465,71.101326 
	C562.176025,71.914307 557.696716,71.909019 553.040100,72.280655 
	C553.040100,66.339653 553.040100,61.094193 553.419678,55.569008 
z"/>
<path fill="#FCFCFD" opacity="1.000000" stroke="none" 
	d="
M391.086212,66.852898 
	C391.086304,62.910358 391.086304,59.445385 391.086304,55.259342 
	C395.259979,55.259342 399.188721,54.886395 403.016449,55.349136 
	C408.391144,55.998894 410.361267,58.788387 410.133484,64.216850 
	C409.939209,68.845467 407.272430,71.547768 402.148682,71.879211 
	C398.713409,72.101433 395.252167,71.921478 391.425690,71.921478 
	C391.297791,70.192413 391.191956,68.761436 391.086212,66.852898 
z"/>
<path fill="#FCFCFD" opacity="1.000000" stroke="none" 
	d="
M744.102905,66.971146 
	C741.646179,68.885147 739.464661,71.069702 736.875244,71.791740 
	C734.091248,72.568031 730.924377,71.989738 727.924988,71.959953 
	C727.293030,71.953667 726.662903,71.762611 725.896729,71.633995 
	C725.896729,66.379402 725.896729,61.293922 725.896729,56.247284 
	C740.256409,54.066772 746.132935,56.632870 744.102905,66.971146 
z"/>
</svg>